<mxfile host="app.diagrams.net" modified="2024-01-08T20:45:37.931Z" agent="Mozilla/5.0 (Windows NT 10.0; Win64; x64) AppleWebKit/537.36 (KHTML, like Gecko) Chrome/120.0.0.0 Safari/537.36" etag="z9oMyIrS2xDdiHXMynqf" version="22.1.17" type="device">
  <diagram id="C5RBs43oDa-KdzZeNtuy" name="Page-1">
    <mxGraphModel dx="205" dy="99" grid="1" gridSize="10" guides="1" tooltips="1" connect="1" arrows="1" fold="1" page="1" pageScale="1" pageWidth="827" pageHeight="1169" math="0" shadow="0">
      <root>
        <mxCell id="WIyWlLk6GJQsqaUBKTNV-0" />
        <mxCell id="WIyWlLk6GJQsqaUBKTNV-1" parent="WIyWlLk6GJQsqaUBKTNV-0" />
        <mxCell id="WlnTj9Vr0K1Xpyy_BOcU-25" value="Cliente" style="whiteSpace=wrap;html=1;align=center;" vertex="1" parent="WIyWlLk6GJQsqaUBKTNV-1">
          <mxGeometry x="90" y="290" width="100" height="40" as="geometry" />
        </mxCell>
        <mxCell id="WlnTj9Vr0K1Xpyy_BOcU-26" value="Agenda" style="whiteSpace=wrap;html=1;align=center;" vertex="1" parent="WIyWlLk6GJQsqaUBKTNV-1">
          <mxGeometry x="373" y="110" width="100" height="40" as="geometry" />
        </mxCell>
        <mxCell id="WlnTj9Vr0K1Xpyy_BOcU-27" value="Pedido" style="whiteSpace=wrap;html=1;align=center;" vertex="1" parent="WIyWlLk6GJQsqaUBKTNV-1">
          <mxGeometry x="373" y="290" width="100" height="40" as="geometry" />
        </mxCell>
        <mxCell id="WlnTj9Vr0K1Xpyy_BOcU-28" value="Ajuste" style="whiteSpace=wrap;html=1;align=center;" vertex="1" parent="WIyWlLk6GJQsqaUBKTNV-1">
          <mxGeometry x="659" y="290" width="100" height="40" as="geometry" />
        </mxCell>
        <mxCell id="WlnTj9Vr0K1Xpyy_BOcU-29" value="Medida" style="whiteSpace=wrap;html=1;align=center;" vertex="1" parent="WIyWlLk6GJQsqaUBKTNV-1">
          <mxGeometry x="373" y="470" width="100" height="40" as="geometry" />
        </mxCell>
        <mxCell id="WlnTj9Vr0K1Xpyy_BOcU-30" value="Realiza" style="shape=rhombus;perimeter=rhombusPerimeter;whiteSpace=wrap;html=1;align=center;" vertex="1" parent="WIyWlLk6GJQsqaUBKTNV-1">
          <mxGeometry x="220" y="280" width="120" height="60" as="geometry" />
        </mxCell>
        <mxCell id="WlnTj9Vr0K1Xpyy_BOcU-31" value="Possui" style="shape=rhombus;perimeter=rhombusPerimeter;whiteSpace=wrap;html=1;align=center;" vertex="1" parent="WIyWlLk6GJQsqaUBKTNV-1">
          <mxGeometry x="363" y="370" width="120" height="60" as="geometry" />
        </mxCell>
        <mxCell id="WlnTj9Vr0K1Xpyy_BOcU-32" value="Possui" style="shape=rhombus;perimeter=rhombusPerimeter;whiteSpace=wrap;html=1;align=center;" vertex="1" parent="WIyWlLk6GJQsqaUBKTNV-1">
          <mxGeometry x="509" y="280" width="120" height="60" as="geometry" />
        </mxCell>
        <mxCell id="WlnTj9Vr0K1Xpyy_BOcU-33" value="Organiza" style="shape=rhombus;perimeter=rhombusPerimeter;whiteSpace=wrap;html=1;align=center;" vertex="1" parent="WIyWlLk6GJQsqaUBKTNV-1">
          <mxGeometry x="363" y="190" width="120" height="60" as="geometry" />
        </mxCell>
        <mxCell id="WlnTj9Vr0K1Xpyy_BOcU-34" value="" style="endArrow=none;html=1;rounded=0;entryX=0;entryY=0.5;entryDx=0;entryDy=0;exitX=1;exitY=0.5;exitDx=0;exitDy=0;" edge="1" parent="WIyWlLk6GJQsqaUBKTNV-1" source="WlnTj9Vr0K1Xpyy_BOcU-30" target="WlnTj9Vr0K1Xpyy_BOcU-27">
          <mxGeometry relative="1" as="geometry">
            <mxPoint x="319" y="289.33000000000004" as="sourcePoint" />
            <mxPoint x="369" y="289.33000000000004" as="targetPoint" />
          </mxGeometry>
        </mxCell>
        <mxCell id="WlnTj9Vr0K1Xpyy_BOcU-35" value="N" style="resizable=0;html=1;whiteSpace=wrap;align=right;verticalAlign=bottom;" connectable="0" vertex="1" parent="WlnTj9Vr0K1Xpyy_BOcU-34">
          <mxGeometry x="1" relative="1" as="geometry">
            <mxPoint as="offset" />
          </mxGeometry>
        </mxCell>
        <mxCell id="WlnTj9Vr0K1Xpyy_BOcU-36" value="" style="endArrow=none;html=1;rounded=0;exitX=0;exitY=0.5;exitDx=0;exitDy=0;entryX=1;entryY=0.5;entryDx=0;entryDy=0;" edge="1" parent="WIyWlLk6GJQsqaUBKTNV-1" source="WlnTj9Vr0K1Xpyy_BOcU-30" target="WlnTj9Vr0K1Xpyy_BOcU-25">
          <mxGeometry relative="1" as="geometry">
            <mxPoint x="200" y="329.84" as="sourcePoint" />
            <mxPoint x="230" y="329.84" as="targetPoint" />
          </mxGeometry>
        </mxCell>
        <mxCell id="WlnTj9Vr0K1Xpyy_BOcU-37" value="1" style="resizable=0;html=1;whiteSpace=wrap;align=right;verticalAlign=bottom;" connectable="0" vertex="1" parent="WlnTj9Vr0K1Xpyy_BOcU-36">
          <mxGeometry x="1" relative="1" as="geometry">
            <mxPoint x="10" as="offset" />
          </mxGeometry>
        </mxCell>
        <mxCell id="WlnTj9Vr0K1Xpyy_BOcU-40" value="" style="endArrow=none;html=1;rounded=0;exitX=0.5;exitY=1;exitDx=0;exitDy=0;entryX=0.5;entryY=0;entryDx=0;entryDy=0;" edge="1" parent="WIyWlLk6GJQsqaUBKTNV-1" source="WlnTj9Vr0K1Xpyy_BOcU-31" target="WlnTj9Vr0K1Xpyy_BOcU-29">
          <mxGeometry relative="1" as="geometry">
            <mxPoint x="239" y="400" as="sourcePoint" />
            <mxPoint x="399" y="400" as="targetPoint" />
          </mxGeometry>
        </mxCell>
        <mxCell id="WlnTj9Vr0K1Xpyy_BOcU-41" value="N" style="resizable=0;html=1;whiteSpace=wrap;align=right;verticalAlign=bottom;" connectable="0" vertex="1" parent="WlnTj9Vr0K1Xpyy_BOcU-40">
          <mxGeometry x="1" relative="1" as="geometry" />
        </mxCell>
        <mxCell id="WlnTj9Vr0K1Xpyy_BOcU-42" value="" style="endArrow=none;html=1;rounded=0;exitX=0;exitY=0.5;exitDx=0;exitDy=0;entryX=1;entryY=0.5;entryDx=0;entryDy=0;" edge="1" parent="WIyWlLk6GJQsqaUBKTNV-1" source="WlnTj9Vr0K1Xpyy_BOcU-32" target="WlnTj9Vr0K1Xpyy_BOcU-27">
          <mxGeometry relative="1" as="geometry">
            <mxPoint x="483.0000000000001" y="329.72" as="sourcePoint" />
            <mxPoint x="519" y="329.72" as="targetPoint" />
          </mxGeometry>
        </mxCell>
        <mxCell id="WlnTj9Vr0K1Xpyy_BOcU-43" value="N" style="resizable=0;html=1;whiteSpace=wrap;align=right;verticalAlign=bottom;" connectable="0" vertex="1" parent="WlnTj9Vr0K1Xpyy_BOcU-42">
          <mxGeometry x="1" relative="1" as="geometry">
            <mxPoint x="17" as="offset" />
          </mxGeometry>
        </mxCell>
        <mxCell id="WlnTj9Vr0K1Xpyy_BOcU-44" value="" style="endArrow=none;html=1;rounded=0;entryX=0;entryY=0.5;entryDx=0;entryDy=0;exitX=1;exitY=0.5;exitDx=0;exitDy=0;" edge="1" parent="WIyWlLk6GJQsqaUBKTNV-1" source="WlnTj9Vr0K1Xpyy_BOcU-32" target="WlnTj9Vr0K1Xpyy_BOcU-28">
          <mxGeometry relative="1" as="geometry">
            <mxPoint x="489" y="320" as="sourcePoint" />
            <mxPoint x="639" y="320" as="targetPoint" />
          </mxGeometry>
        </mxCell>
        <mxCell id="WlnTj9Vr0K1Xpyy_BOcU-45" value="N" style="resizable=0;html=1;whiteSpace=wrap;align=right;verticalAlign=bottom;" connectable="0" vertex="1" parent="WlnTj9Vr0K1Xpyy_BOcU-44">
          <mxGeometry x="1" relative="1" as="geometry" />
        </mxCell>
        <mxCell id="WlnTj9Vr0K1Xpyy_BOcU-46" value="" style="endArrow=none;html=1;rounded=0;exitX=0.5;exitY=0;exitDx=0;exitDy=0;entryX=0.5;entryY=1;entryDx=0;entryDy=0;" edge="1" parent="WIyWlLk6GJQsqaUBKTNV-1" source="WlnTj9Vr0K1Xpyy_BOcU-33" target="WlnTj9Vr0K1Xpyy_BOcU-26">
          <mxGeometry relative="1" as="geometry">
            <mxPoint x="373.0000000000001" y="160" as="sourcePoint" />
            <mxPoint x="373.0000000000001" y="200" as="targetPoint" />
          </mxGeometry>
        </mxCell>
        <mxCell id="WlnTj9Vr0K1Xpyy_BOcU-47" value="1" style="resizable=0;html=1;whiteSpace=wrap;align=right;verticalAlign=bottom;" connectable="0" vertex="1" parent="WlnTj9Vr0K1Xpyy_BOcU-46">
          <mxGeometry x="1" relative="1" as="geometry">
            <mxPoint y="20" as="offset" />
          </mxGeometry>
        </mxCell>
        <mxCell id="WlnTj9Vr0K1Xpyy_BOcU-48" value="" style="endArrow=none;html=1;rounded=0;exitX=0.5;exitY=1;exitDx=0;exitDy=0;entryX=0.5;entryY=0;entryDx=0;entryDy=0;" edge="1" parent="WIyWlLk6GJQsqaUBKTNV-1" source="WlnTj9Vr0K1Xpyy_BOcU-33" target="WlnTj9Vr0K1Xpyy_BOcU-27">
          <mxGeometry relative="1" as="geometry">
            <mxPoint x="319" y="240" as="sourcePoint" />
            <mxPoint x="479" y="240" as="targetPoint" />
          </mxGeometry>
        </mxCell>
        <mxCell id="WlnTj9Vr0K1Xpyy_BOcU-49" value="N" style="resizable=0;html=1;whiteSpace=wrap;align=right;verticalAlign=bottom;" connectable="0" vertex="1" parent="WlnTj9Vr0K1Xpyy_BOcU-48">
          <mxGeometry x="1" relative="1" as="geometry" />
        </mxCell>
        <mxCell id="kvDJSxqPI1gx3ARb8WiW-1" value="" style="endArrow=none;html=1;rounded=0;entryX=0.5;entryY=1;entryDx=0;entryDy=0;exitX=0.5;exitY=0;exitDx=0;exitDy=0;" edge="1" parent="WIyWlLk6GJQsqaUBKTNV-1" source="WlnTj9Vr0K1Xpyy_BOcU-31" target="WlnTj9Vr0K1Xpyy_BOcU-27">
          <mxGeometry relative="1" as="geometry">
            <mxPoint x="390.0000000000001" y="340" as="sourcePoint" />
            <mxPoint x="390.0000000000001" y="380" as="targetPoint" />
          </mxGeometry>
        </mxCell>
        <mxCell id="kvDJSxqPI1gx3ARb8WiW-2" value="N" style="resizable=0;html=1;whiteSpace=wrap;align=right;verticalAlign=bottom;" connectable="0" vertex="1" parent="kvDJSxqPI1gx3ARb8WiW-1">
          <mxGeometry x="1" relative="1" as="geometry">
            <mxPoint y="20" as="offset" />
          </mxGeometry>
        </mxCell>
      </root>
    </mxGraphModel>
  </diagram>
</mxfile>
